<svg xmlns="http://www.w3.org/2000/svg" viewBox="0 0 306 306"><path d="M203.21 48.73l.14-.11a3.74 3.74 0 0 1 .42-.27L278.7 0c-7 .61-14.1 1.17-21 1.71-7.35.58-14.84 1.17-22.35 1.83-6.72.59-13.45 1.23-20.12 2-3.58.39-6.73 1-8.93 4.08-1.67 2.34-2.32 5.27-2.85 8.07-.82 4.29-1.61 8.58-2.41 12.87q-1.38 7.47-2.8 15a26.88 26.88 0 0 0 .39 11.68 10.78 10.78 0 0 1 4.58-8.51zm8.07 84.57a19.21 19.21 0 0 0-20.66-8.49l-51.21 12.1L97 229.79 65.64 298.4l190.65-80.06a635.33 635.33 0 0 0-45.01-85.04zm22.92-87.88a226.93 226.93 0 0 0-26.26 13A9.44 9.44 0 0 0 204 70.34l60.6 139.78 9.47-93.36a39.81 39.81 0 0 0-7.67-27.91zM85.3 216.44a443.12 443.12 0 0 0 34.93-62.59L0 170l78.22 48a5.22 5.22 0 0 0 7.08-1.56zm88.07 58.86a5.18 5.18 0 0 0 2.5 4.46L218.63 306l38.63-76.75a583.21 583.21 0 0 0-81.45 41.64 5.11 5.11 0 0 0-2.44 4.41zM490.61 195c0 .35 0 .71-.05 1.05l-.09 1c.05-.7.11-1.37.14-2.05z" class="cls-1"/></svg>