<svg xmlns="http://www.w3.org/2000/svg" viewBox="0 0 1430.51 306"><defs><style>.cls-1{fill:#fff;}</style></defs><title>MEDIUMWHITE-Asset 27</title><g id="Layer_2" data-name="Layer 2"><g id="Layer_1-2" data-name="Layer 1"><path class="cls-1" d="M203.21,48.73l.14-.11a3.74,3.74,0,0,1,.42-.27L278.7,0c-7,.61-14.1,1.17-21,1.71-7.35.58-14.84,1.17-22.35,1.83-6.72.59-13.45,1.23-20.12,2-3.58.39-6.73,1-8.93,4.08-1.67,2.34-2.32,5.27-2.85,8.07-.82,4.29-1.61,8.58-2.41,12.87q-1.38,7.47-2.8,15a26.88,26.88,0,0,0,.39,11.68A10.78,10.78,0,0,1,203.21,48.73Z"/><path class="cls-1" d="M211.28,133.3a19.21,19.21,0,0,0-20.66-8.49l-51.21,12.1L97,229.79,65.64,298.4l190.65-80.06A635.33,635.33,0,0,0,211.28,133.3Z"/><path class="cls-1" d="M234.2,45.42a226.93,226.93,0,0,0-26.26,13A9.44,9.44,0,0,0,204,70.34l60.6,139.78,9.47-93.36a39.81,39.81,0,0,0-7.67-27.91Z"/><path class="cls-1" d="M85.3,216.44a443.12,443.12,0,0,0,34.93-62.59L0,170l78.22,48A5.22,5.22,0,0,0,85.3,216.44Z"/><path class="cls-1" d="M173.37,275.3a5.18,5.18,0,0,0,2.5,4.46L218.63,306l38.63-76.75a583.21,583.21,0,0,0-81.45,41.64A5.11,5.11,0,0,0,173.37,275.3Z"/><path class="cls-1" d="M490.61,195c0,.35,0,.71-.05,1.05l-.09,1C490.52,196.35,490.58,195.68,490.61,195Z"/><path class="cls-1" d="M515,112.75v80.91c0,18.55-5.85,33.72-17.37,45a47.84,47.84,0,0,1-7,6.06,49.72,49.72,0,0,1-10.77,5.82,66.08,66.08,0,0,1-26.63,3.86,66,66,0,0,1-26.62-3.86,49.94,49.94,0,0,1-10.79-5.83,50.59,50.59,0,0,1-7-6.05c-11.5-11.32-17.37-26.49-17.37-45V112.75h24.39v80.09c0,1.06.06,2.12.1,3.18a43.06,43.06,0,0,0,3.7,16.23,11.5,11.5,0,0,0,.7,1.46c.21.42.42.84.68,1.27.1.16.19.33.3.51s.37.64.58.95a33.35,33.35,0,0,0,4,5.08c7.22,7.6,17.06,10.75,27.39,10.46,10.33.29,20.17-2.85,27.4-10.46a32,32,0,0,0,3.43-4.28q.36-.51.69-1.05c.26-.4.5-.81.72-1.21s.47-.85.68-1.27a15.06,15.06,0,0,0,.7-1.46c.24-.5.46-1,.65-1.52a44.07,44.07,0,0,0,3-14.71c0-.34,0-.7.05-1.05,0-.61,0-1.23,0-1.85V112.75Z"/><path class="cls-1" d="M416,197.05c0-.34,0-.68-.08-1s0-.7-.06-1.05C415.91,195.68,416,196.35,416,197.05Z"/><path class="cls-1" d="M617.09,110.58c-19.79,0-35.39,6.67-46.48,19.84V112.75H546.22V306h24.39V234.41c11.13,13.34,26.28,20.09,45.13,20.09,20.92,0,37.85-7.06,50.29-21,12.4-13.7,18.69-30.85,18.69-51s-6.29-37.26-18.68-50.95C653.59,117.65,637.12,110.58,617.09,110.58Zm-2.71,22.5c13.78,0,25.13,4.88,33.72,14.49,8.11,9.16,12.23,20.92,12.23,35s-4.12,25.82-12.23,35c-8.59,9.62-19.93,14.5-33.72,14.5s-25.09-4.86-33.14-14.46c-7.77-9.16-11.71-20.93-11.71-35s3.94-25.84,11.72-35C589.3,137.94,600.45,133.08,614.38,133.08Z"/><path class="cls-1" d="M736.94,68c-9.29,7.78-14,19.52-14,34.9v9.89H699.62v22h23.31V252.34h24.4V134.71h31.44v-22H747.33v-8.27c0-8.74,2.18-15.11,6.49-18.94S765,79.68,774,79.68h4.75V56.38h-3.66C759,56.38,746.13,60.27,736.94,68Z"/><path class="cls-1" d="M854.75,115.11c-11.48,5.31-20,13-25.3,22.87V112.75H805.06V252.34h24.39V190.67c0-15,4.23-28.08,12.57-38.85C850.92,140.48,862.1,135,876.2,135h4.48v-24.4h-3.39C868.53,110.58,860.94,112.11,854.75,115.11Z"/><path class="cls-1" d="M1008.88,130.68c-11.13-13.34-26.28-20.1-45.13-20.1-20.92,0-37.94,7.07-50.58,21-12.21,13.7-18.4,30.84-18.4,50.95s6.19,37.26,18.42,51c12.62,13.93,29.18,21,49.2,21,19.8,0,35.4-6.66,46.49-19.83v17.67h24.39V112.75h-24.39ZM965.1,232c-13.78,0-25.13-4.88-33.71-14.5-8.11-9.14-12.23-20.91-12.23-35s4.12-25.82,12.23-35c8.59-9.62,19.93-14.5,33.71-14.5,13.94,0,25.09,4.86,33.15,14.46,7.77,9.16,11.71,20.93,11.71,35s-3.94,25.85-11.72,35C990.08,227.28,979.24,232,965.1,232Z"/><path class="cls-1" d="M1237.35,114.68a49.54,49.54,0,0,0-19.78-4.1,52.05,52.05,0,0,0-18.46,3.11c-12.19,4.57-21.57,12-27.95,22.15a50.57,50.57,0,0,0-17-17.77,48.73,48.73,0,0,0-26.14-7.49c-16.71,0-29.86,6.11-39.17,18.18v-16h-24.39V252.34h24.39V169.26c0-11.29,3.43-20.27,10.23-26.73,6.44-6.27,14.62-9.45,24.33-9.45,9.24,0,16.64,3.15,22.59,9.6,6,6.82,9,15.67,9,26.31v83.35h24.4V169.26c0-11.29,3.43-20.27,10.22-26.73,6.45-6.27,14.63-9.45,24.33-9.45,9.25,0,16.65,3.15,22.6,9.6,6,6.82,9,15.67,9,26.31v83.35h24.39V168.45c0-16.72-5.29-30.86-15.74-42.07A52,52,0,0,0,1237.35,114.68Z"/><path class="cls-1" d="M1401.84,208.48c-5.64,12.42-15.86,19.81-31.1,22.49-12.58,2.22-23.76.13-33.25-6.22A46.94,46.94,0,0,1,1319,200.2l61.65-10.87,49.9-8.8-1.77-10c-3.55-20.18-12.64-36-27-47-15.21-11.45-33.27-15.43-53.68-11.83s-36,13.51-46.41,29.49c-9.72,15.26-12.85,33.22-9.29,53.4,3.53,20,12.89,35.78,27.82,46.88,15.38,11.41,33.62,15.35,54.21,11.72,16.2-2.85,29-9.13,38-18.66a67.3,67.3,0,0,0,16.58-30.81ZM1324.28,150c6.66-8.67,16-14.11,27.68-16.17s22.31-.13,31.52,5.72c8.08,5.25,14.07,12.89,17.83,22.73l-86,15.17C1315.47,166.91,1318.48,157.68,1324.28,150Z"/></g></g></svg>